<svg width="111" height="121" viewBox="0 0 111 121" fill="none" xmlns="http://www.w3.org/2000/svg">
<rect x="11.0005" y="21" width="100" height="100" fill="#93E900"/>
<rect x="3.00049" y="13" width="100" height="100" fill="#BEF264"/>
<path d="M26.77 48.3447L40.6287 37.4311C44.5129 34.3723 48.2156 32.9839 51.7368 33.2658C55.2957 33.518 58.3522 35.2656 60.9061 38.5087C62.6879 40.7714 63.5477 43.0269 63.4855 45.2754C63.4313 47.4565 62.6047 49.6654 61.0058 51.9021L61.273 52.2415C64.1994 50.9146 66.9164 50.4856 69.4242 50.9547C71.9696 51.394 74.2966 52.9524 76.4051 55.6299C79.0184 58.9484 80.0413 62.4197 79.4737 66.0436C78.9439 69.6379 76.7934 72.9199 73.0224 75.8896L57.8627 87.8278L26.77 48.3447ZM65.7431 71.9993C67.7794 70.3956 69.0017 68.8832 69.41 67.462C69.8182 66.0408 69.3096 64.4251 67.8841 62.615L66.5923 60.9746C65.1668 59.1645 63.7155 58.2912 62.2382 58.3549C60.7608 58.4185 59.004 59.2521 56.9676 60.8558L52.6686 64.2412L61.444 75.3847L65.7431 71.9993ZM51.4383 56.0455C53.437 54.4716 54.6364 53.0077 55.0366 51.6539C55.4072 50.2624 54.9094 48.6993 53.5433 46.9646L52.207 45.2676C50.8409 43.5329 49.4529 42.7014 48.043 42.773C46.6331 42.8447 44.9288 43.6675 42.9302 45.2414L39.7059 47.7805L48.2141 58.5846L51.4383 56.0455Z" fill="white"/>
<path d="M21.8066 48.949L35.6653 38.0354C39.5495 34.9766 43.2522 33.5882 46.7734 33.8701C50.3324 34.1223 53.3888 35.8699 55.9427 39.113C57.7245 41.3757 58.5843 43.6313 58.5221 45.8797C58.4679 48.0608 57.6413 50.2697 56.0424 52.5064L56.3096 52.8458C59.236 51.5189 61.953 51.0899 64.4608 51.559C67.0062 51.9983 69.3332 53.5567 71.4417 56.2342C74.055 59.5527 75.0779 63.024 74.5104 66.6479C73.9805 70.2422 71.83 73.5242 68.059 76.4939L52.8993 88.4321L21.8066 48.949ZM60.7797 72.6036C62.8161 70.9999 64.0384 69.4875 64.4466 68.0663C64.8548 66.6451 64.3462 65.0294 62.9207 63.2193L61.6289 61.5789C60.2035 59.7688 58.7521 58.8955 57.2748 58.9592C55.7975 59.0228 54.0406 59.8564 52.0042 61.4601L47.7052 64.8455L56.4807 75.989L60.7797 72.6036ZM46.475 56.6498C48.4736 55.0759 49.6731 53.612 50.0733 52.2582C50.4438 50.8667 49.946 49.3036 48.5799 47.5689L47.2436 45.8719C45.8775 44.1372 44.4895 43.3057 43.0796 43.3774C41.6697 43.449 39.9655 44.2718 37.9668 45.8457L34.7425 48.3848L43.2507 59.1889L46.475 56.6498Z" fill="black"/>
</svg>
